Coordinates
version=1
nRows=5
nColumns=46
inDegrees=yes

Units are S.I. units (second, meters, Newtons, ...)
Angles are in degrees.

endheader
time	pelvis_tilt	pelvis_list	pelvis_rotation	pelvis_tx	pelvis_ty	pelvis_tz	bb_angle	bb_tx	bb_ty	bb_tz	hip_flexion_r	hip_adduction_r	hip_rotation_r	knee_angle_r	knee_angle_r_beta	ankle_angle_r	subtalar_angle_r	mtp_angle_r	crank_angle_r	hip_flexion_l	hip_adduction_l	hip_rotation_l	knee_angle_l	knee_angle_l_beta	ankle_angle_l	subtalar_angle_l	mtp_angle_l	crank_angle_l	lumbar_extension	lumbar_bending	lumbar_rotation	arm_flex_r	arm_add_r	arm_rot_r	elbow_flex_r	pro_sup_r	wrist_flex_r	wrist_dev_r	arm_flex_l	arm_add_l	arm_rot_l	elbow_flex_l	pro_sup_l	wrist_flex_l	wrist_dev_l
      2.50000000	    -15.19780798	     -5.07100886	     -3.66303148	      0.18780529	      1.05981696	     -0.23989640	      0.00000000	      0.50000000	      0.00000000	      0.25000000	     72.25229009	      4.12114326	      2.74497206	     79.53833112	      1.38820576	     27.47382480	     -7.25722044	      0.00000000	      0.00000000	     48.50357151	    -12.64138382	      0.85970342	     69.84224207	      1.21897708	    -13.72541068	     -9.75990122	      0.00000000	      0.00000000	    -66.03749552	      9.58055314	      8.35920094	     89.42257128	     -9.07267070	     26.76230288	     63.26870484	     39.97606993	      0.00000000	      0.00000000	     86.53894634	    -32.68359983	     37.51901837	     58.98405108	     44.52308151	      0.00000000	      0.00000000
      2.50500000	    -15.20003017	     -4.69613182	     -3.24181048	      0.18848684	      1.06011001	     -0.23943545	      0.00000000	      0.50000000	      0.00000000	      0.25000000	     71.77776405	      3.62680094	      2.91414904	     78.51506631	      1.37034642	     26.98722134	     -7.28850359	      0.00000000	      0.00000000	     48.79544038	    -12.27443699	      0.76119719	     70.77289638	      1.23522006	    -13.18417741	     -9.39298654	      0.00000000	      0.00000000	    -65.95421161	      9.41794410	      7.78961353	     89.38019952	     -9.18968134	     26.63124796	     63.21115763	     40.00058008	      0.00000000	      0.00000000	     86.71736421	    -32.54571966	     37.60070357	     59.02802268	     44.53477437	      0.00000000	      0.00000000
      2.51000000	    -15.19253488	     -4.32591321	     -2.83841298	      0.18913768	      1.06036570	     -0.23883639	      0.00000000	      0.50000000	      0.00000000	      0.25000000	     71.27489267	      3.15591309	      3.06642615	     77.44841365	      1.35172982	     26.45379327	     -7.42375125	      0.00000000	      0.00000000	     49.09463748	    -11.92828832	      0.68962026	     71.74104613	      1.25211746	    -12.64391480	     -9.12896411	      0.00000000	      0.00000000	    -65.88403695	      9.23237277	      7.17701694	     89.33331316	     -9.26478181	     26.56266926	     63.06211079	     40.20137053	      0.00000000	      0.00000000	     86.71676344	    -32.38533975	     37.28102823	     59.24189956	     44.52980887	      0.00000000	      0.00000000
      2.51500000	    -15.15781056	     -4.04381037	     -2.32840288	      0.18997284	      1.06067189	     -0.23838929	      0.00000000	      0.50000000	      0.00000000	      0.25000000	     70.71495632	      2.62495835	      3.09235033	     76.42637730	      1.33389192	     25.91773503	     -7.59381986	      0.00000000	      0.00000000	     49.39506630	    -11.54907449	      0.76993683	     72.69145493	      1.26870523	    -12.19817911	     -8.93036817	      0.00000000	      0.00000000	    -65.87851769	      9.26099045	      6.60314392	     89.28778134	     -9.16853595	     26.50732213	     62.91315400	     40.59209397	      0.00000000	      0.00000000	     86.31967290	    -32.21824790	     36.55098185	     59.79199091	     44.53859003	      0.00000000	      0.00000000
      2.52000000	    -15.19933227	     -3.62731597	     -1.95892270	      0.19065887	      1.06075240	     -0.23789152	      0.00000000	      0.50000000	      0.00000000	      0.25000000	     70.26295455	      2.12213366	      3.27542951	     75.39375783	      1.31586931	     25.28922063	     -7.54112563	      0.00000000	      0.00000000	     49.75327998	    -11.17847052	      0.61786929	     73.70416928	      1.28638043	    -11.58730470	     -8.60037146	      0.00000000	      0.00000000	    -65.76450034	      9.10068490	      5.95476891	     89.21924180	     -9.08987329	     26.19825837	     62.77964854	     40.89863232	      0.00000000	      0.00000000	     86.59165537	    -32.37551845	     37.22616849	     59.79286703	     44.56494658	      0.00000000	      0.00000000
